<?xml version="1.0" encoding="UTF-8"?>
<svg width="24px" height="24px" viewBox="0 0 24 24" version="1.1" xmlns="http://www.w3.org/2000/svg" xmlns:xlink="http://www.w3.org/1999/xlink">
    <!-- Generator: Sketch 52.6 (67491) - http://www.bohemiancoding.com/sketch -->
    <title>ic_more_black</title>
    <desc>Created with Sketch.</desc>
    <g id="ic_more_black" stroke="none" stroke-width="1" fill="none" fill-rule="evenodd" stroke-linecap="round" stroke-linejoin="round">
        <path d="M13.8,19.2 C13.8,20.1942 12.9942,21 12,21 C11.0058,21 10.2,20.1942 10.2,19.2 C10.2,18.2058 11.0058,17.4 12,17.4 C12.9942,17.4 13.8,18.2058 13.8,19.2 Z M13.8,12 C13.8,12.9942 12.9942,13.8 12,13.8 C11.0058,13.8 10.2,12.9942 10.2,12 C10.2,11.0058 11.0058,10.2 12,10.2 C12.9942,10.2 13.8,11.0058 13.8,12 Z M13.8,4.8 C13.8,5.7942 12.9942,6.6 12,6.6 C11.0058,6.6 10.2,5.7942 10.2,4.8 C10.2,3.8058 11.0058,3 12,3 C12.9942,3 13.8,3.8058 13.8,4.8 Z" id="Stroke-170" stroke="#181818" stroke-width="1.5"></path>
    </g>
</svg>